<?xml version="1.0"?>
<!DOCTYPE svg PUBLIC "-//W3C//DTD SVG 1.1//EN" "http://www.w3.org/Graphics/SVG/1.1/DTD/svg11.dtd">
<svg width="709.7160000000001mm" height="674.3160000000001mm" viewBox="0 0 709.7160000000001 674.3160000000001" xmlns="http://www.w3.org/2000/svg" version="1.1">
<g id="Sketch" transform="translate(337.158000,337.158000) scale(1,-1)">
<path id="Sketch_w0000"  d="M -330.2 330.2 L -330.2 -330.20000000000005 L 330.2 -330.20000000000005 L 330.2 330.20000000000005 L -330.2 330.2 " stroke="#000000" stroke-width="0.7 px" style="stroke-width:0.7;stroke-miterlimit:4;stroke-dasharray:none;stroke-linecap:square;fill:none;fill-opacity:1;fill-rule: evenodd"/>
<path id="Sketch_w0001"  d="M -288.417 165.1 M -288.417 165.1 L -295.78299999999996 165.1 L -288.417 165.1 " stroke="#000000" stroke-width="0.7 px" style="stroke-width:0.7;stroke-miterlimit:4;stroke-dasharray:none;stroke-linecap:square;fill:none;fill-opacity:1;fill-rule: evenodd"/>
<path id="Sketch_w0002"  d="M -288.417 -2.603050199794223e-29 M -288.417 -2.603050199794223e-29 L -295.78299999999996 4.510374161259441e-16 L -288.417 -9.020748322519664e-16 " stroke="#000000" stroke-width="0.7 px" style="stroke-width:0.7;stroke-miterlimit:4;stroke-dasharray:none;stroke-linecap:square;fill:none;fill-opacity:1;fill-rule: evenodd"/>
<path id="Sketch_w0003"  d="M -288.41700000000003 -165.1 M -288.41700000000003 -165.1 L -295.783 -165.1 L -288.41700000000003 -165.1 " stroke="#000000" stroke-width="0.7 px" style="stroke-width:0.7;stroke-miterlimit:4;stroke-dasharray:none;stroke-linecap:square;fill:none;fill-opacity:1;fill-rule: evenodd"/>
<path id="Sketch_w0004"  d="M 295.783 165.1 M 295.783 165.1 L 288.41700000000003 165.1 L 295.783 165.1 " stroke="#000000" stroke-width="0.7 px" style="stroke-width:0.7;stroke-miterlimit:4;stroke-dasharray:none;stroke-linecap:square;fill:none;fill-opacity:1;fill-rule: evenodd"/>
<path id="Sketch_w0005"  d="M 295.783 2.101222233098331e-26 M 295.783 2.101222233098331e-26 L 288.41700000000003 4.510374161469824e-16 L 295.783 -9.02074832230928e-16 " stroke="#000000" stroke-width="0.7 px" style="stroke-width:0.7;stroke-miterlimit:4;stroke-dasharray:none;stroke-linecap:square;fill:none;fill-opacity:1;fill-rule: evenodd"/>
<path id="Sketch_w0006"  d="M 295.78299999999996 -165.1 M 295.78299999999996 -165.1 L 288.417 -165.1 L 295.78299999999996 -165.1 " stroke="#000000" stroke-width="0.7 px" style="stroke-width:0.7;stroke-miterlimit:4;stroke-dasharray:none;stroke-linecap:square;fill:none;fill-opacity:1;fill-rule: evenodd"/>
<path id="Sketch_w0007"  d="M 355.6 330.2 L 355.6 320.2 L 365.6 320.2 L 365.6 330.2 L 355.6 330.2 " stroke="#000000" stroke-width="0.7 px" style="stroke-width:0.7;stroke-miterlimit:4;stroke-dasharray:none;stroke-linecap:square;fill:none;fill-opacity:1;fill-rule: evenodd"/>
<title>b'top'</title>
</g>
</svg>